<svg xmlns="http://www.w3.org/2000/svg" width="1213.582" height="1213.115" viewBox="0 0 658.01662 648.99154"><title>postcss-logo-symbol</title><g fill="none"><path d="M122.613 274.226c.895.676 2.448 1.115.895 2.448-1.114 1.554-2.448 2.887-3.334 4.669-.886 1.561-1.553 2-2.887.894a124.763 124.763 0 0 1 5.318-8.019zM569.12 507.352c0 .658.22 1.097.22 1.772.447-.886.447-1.333.674-1.772h-.894zm0 1.992v-.22.22zm-45.314 86.752l-38.661-214.428c-.658-.21-1.545-.65-3.106-1.097.447.886.675 1.553.894 2.22 1.098-.22 1.554-.22 1.992-.439 0-.22 0-.439.228-.675l38.662 214.444zM483.82 333.4c-.22.659-.22 1.334-.22 2.001 0-.675 0-1.35.237-2.009zm.22 4.44c-.22 0-.22 0-.44-.236v.22c.237.22.237.22.456 0zm-.44 1.773v-1.561c-.65.22-1.317.22-2.211.447 1.114.422 2.228.658 2.228 1.097z" fill="#dd3735"/><path d="M656.64 285.572c-.44-8.678-.659-17.356-1.553-26.025-1.554-11.793-3.107-23.805-5.774-35.37-2-9.563-5.318-18.689-8.661-27.805-4.22-10.679-8.441-21.576-13.776-31.807-8.661-16.461-19.99-31.149-30.432-46.495-6.905-9.792-15.785-17.795-22.454-27.806-3.773-5.783-9.327-10.67-14.882-15.11-8.889-7.133-18.216-13.591-27.544-19.812-7.108-4.896-14.215-9.564-21.779-13.793-5.993-3.352-12.434-6.02-18.655-8.915-7.108-3.334-13.996-7.344-21.99-8.897-2.009-.422-3.782-1.097-5.782-1.772-5.107-1.773-9.995-3.774-15.11-5.335-7.766-2.448-15.321-5.335-23.324-7.344-7.749-2.001-15.751-3.326-23.754-4.449-8.88-1.308-17.98-1.773-26.877-2.642C368.519 1.52 362.745.86 357.19.642c-8.442-.44-17.103-.44-25.544-.659-4.22-.228-8.66-.675-12.881-.447-6.441.22-12.882.886-19.331 1.773-6.213.675-12.434 1.772-18.428 2.675-7.318.887-14.645 1.334-21.981 2.229-6.888.895-13.996 2.228-20.876 3.343-2.448.447-4.896 1.333-7.344 1.772-5.318 1.115-10.872 1.562-16.207 3.343-9.539 2.904-19.103 6.247-28.43 9.792-8.67 3.562-17.111 7.344-25.325 11.793-8.441 4.66-16.443 10.214-24.437 15.566-7.564 5.115-15.11 10.45-22.454 16.232-7.091 5.572-13.76 11.793-20.21 18.023-3.544 3.545-6.44 7.783-9.774 11.784-5.546 6.458-11.1 12.679-16.436 19.356-4.423 5.571-8.44 11.345-12.662 17.136-7.538 10.214-13.979 21.12-19.972 32.027-2.448 4.448-4.668 8.897-6.888 13.337-3.334 6.669-6.888 13.126-9.995 20.023-2.228 4.676-4 9.792-5.335 14.907-3.098 10.907-6.212 22.032-9.1 32.922C.915 257.36.248 267.592.037 277.603c-.228 8.897.659 17.575 1.545 26.472.228 2.229-1.097 4.896 1.553 6.669-.886 2.448-.22 3.798 1.098 4.22-1.537 2.449.675 4.019-.203 6.247-.228.44.675 1.325 1.097 1.992 0 .676-.21 1.562 0 2.229.237 2 1.123 4.001 1.123 6.23 0 1.553 1.325 3.334 1.773 4.896.22.658 0 1.772-.448 2.22-1.333 1.553-1.114 2.887.887 3.781 1.122 2.887.675 4.221.456 5.572.439 1.992-.228 2.659 0 3.106 1.772 3.562 2.448 7.564 2.659 11.565 0 .895.447 1.79.894 2.895.22 0 0 4.22 0 4.22 1.098-.658 2.001-.877 3.107-1.324.675 2.886 1.334 5.57 2.22 8.019 1.114 1.773 1.114 2.65.675 2.87.887 4.001 1.326 7.783 2.87 11.565 0-4.221-.422-8.442-1.097-12.451 3.106 1.114 5.774 2.22 7.555 2.22.228-.676.447-1.554.675-2.001-1.334-1.325-2.448-3.326-3.781-4.66.447 1.773 0 2.448 0 3.124-.887-.456-2.001-.904-3.107-1.35.886-1.098 1.773-2.221 3.107-3.546 0-2.01-1.098-3.799-4.221-3.571 1.334-.439 2.667-1.097 4.22-1.553 2.448-1.325-.219-3.773-.219-6.888.22-3.774-2-7.555-2.667-11.565-1.115-6.221-.887-15.566-1.554-21.796-1.333-1.114-2.448 1.773-2.667 2.001.675 5.335 1.334 10.67 1.773 16.013-1.326-4.448-2.22-9.344-3.326-14.688-.228 1.562-.448 2.229-.448 3.124-1.097 1.097-.22 2.448.448 4-1.554-.675-3.335-.438-3.335-.438v6.23c-2.211-2.229-2.87-4.002-3.992-5.572-.44-1.772-.676-3.545-1.098-5.318.422-1.123 0-1.79 0-2.448-.236-1.57-.456-3.343-.675-5.352.22-.22-.22-3.545-.22-3.545 1.773.211 2.896.422 4.002.422-2.22-2.87-.676-4.66.228-6.44.447-.895 2-1.098 2.448-2.01 1.772-3.334 4.668-5.993 4.668-10.23 0-2.001.675-4.221.886-6.23.447-3.782.886-7.564 1.097-11.346.456-4.896 0-9.792 1.123-14.46 1.79-7.766 4.01-15.557 6.45-23.349 1.772-5.57 3.781-10.889 5.993-16.46 3.334-8.678 6.449-17.356 10.67-25.578 5.993-12.02 12.881-23.585 19.55-35.369 4.22-7.344 8.66-14.24 13.337-21.357 4.432-6.896 8.864-14.012 13.987-20.47 7.116-9.117 14.891-17.575 23.552-25.138 8.889-8.003 17.33-16.233 26.877-23.577a269.986 269.986 0 0 1 39.523-25.375c11.336-5.993 23.104-10.687 34.88-15.135 7.554-2.887 15.768-4.22 23.55-6.669 8.881-2.895 17.77-4.22 27.098-4.448 5.993-.228 11.775-.895 17.769-1.562 5.335-.422 10.661-.878 16.444-1.545-.676.886-.895 1.334-1.115 1.773-2.43 3.562-5.098 7.124-7.546 10.678-2 2.896-4.221 6.01-6.222 8.897-3.562 4.685-7.344 9.353-10.67 14.25-5.107 7.343-9.775 14.907-15.11 22.242-5.318 7.116-11.1 13.794-16.654 20.682-7.328 9.572-14.216 19.356-21.543 28.92-6.668 9.117-13.76 17.811-20.208 26.928-5.774 7.994-10.89 16.46-16.444 24.674-8.214 12.24-16.436 24.244-24.649 36.484-6.45 9.336-12.89 18.46-19.55 27.805-.448.676-1.114.878-1.773 1.326-1.773 2.887-1.773 4.448-2.448 5.782-1.773 3.334-3.545 6.669-5.554 9.792-1.115 1.773-2.668 3.326-4.002 5.107-.219-2.667 3.546-4.001 1.773-7.344-1.097 1.79-2.22 3.343-3.326 5.124l-2.667 5.318c.886.675 2.448 1.123.886 2.448-.675 1.123-1.334 2.448-2 3.57 1.114-.675 1.772-1.333 2.448-2.228 0 2.448-1.334 4.44-2.448 6.441-.887 1.773-3.107 3.123-4.66 4.449.22.228 1.773.894 2 1.114 2.001-.675 2.668-1.773 2.896-1.114.675-.887 1.334-1.554 1.553-2.22.878-2.229 2.212-4.002 4.432-4.896.895-.448 1.553-1.115 2.22-1.773 6.669-6.905 13.557-13.574 19.55-20.918 9.336-11.353 17.778-23.13 26.675-34.694 3.765-4.896 8.213-9.792 12.206-14.468.658 5.115.22 10.003 0 14.688-.675 8.221-1.114 16.46-1.773 24.902-.228 3.334 0 6.668-.228 10.011 0 .886-.675 1.553-.675 2.448 0 2.22.675 4.668.675 6.897-.675 8.23-1.57 16.232-2.237 24.463-.227 1.772.659 3.562 1.098 5.124-1.098 12.003 1.35 24.69-.659 37.37 1.554-2.448 2.001-4.002 2.001-5.555.211-1.334 0-2.667 0-4.22v-2.229c.211-4.01 1.097-8.23.658-12.24-.447-4.449-.447-8.67.448-12.898.447-1.773-.22-4.002.895-6.23v3.334c-.22 12.662.228 25.35-1.545 38.029-.228 1.114.675 3.123-1.773 2.895-2.009 4.001.44 6.897-1.773 9.117-.455.447.423 2.448.65 3.781-.894 2.676-.894 2.676.44 2.896.219 4.896.675 9.336.886 14.012 3.545-8.44 1.772-17.136 3.343-25.813.219 3.562.447 7.124.219 10.89 0 5.798-.22 11.353-.439 17.135 0 1.114-.228 2.229-.447 3.343-.676 3.123-.887 6.23-2 9.117-.887 2.228-.44 5.57-.44 8.23v8.467c.886 3.781-.228 5.782.44 8.002-.676 2.237-.887 2.904-.676 3.57l.675 3.335c4.449-.447 2.448 2.895 4.22 4.668-1.333 1.79-.886 2.448-.886 3.351 0 2.001-.21 3.782-.439 5.783 0 5.115-.219 10.23-.219 15.127 0 .675.22 1.325.22 1.992 0 .456-.22 6.246-.22 6.246.447.659 0 1.326-.675 1.993-.211 0-.878-28.254-.878-28.254h-3.335c-.439 13.338.676 25.35-1.772 37.818-2.668.21-3.546.658-6.45.658-6.888 0-13.776 0-20.664.22-8.222 0-16.207.219-24.438.219-3.984 0-8.205.456-12.206.456-5.335 0-10.89-.675-16.207-.675-8.23 0-16.225.675-24.447.894-5.993.22-11.986.22-17.98.448-4.01.21-8.019.422-12.003.878-1.773.22-3.335.886-5.555 1.553-.675 0-2.22-.22-3.545 0-2.237.447-4.22 1.773-6.458 2.228-3.334.676-4.22 1.554-3.781 4.896v2.22c-.22.44 4.896-.675 4.896-.675-.456 0-.676 1.334-1.351 2.448 1.79-.675 2.895-1.114 4.01-1.553 3.334 1.562 6.22.675 8.88 1.35 8.66 2.212 17.541 3.124 26.421 3.993 5.783.448 11.337.676 17.111.887 8.213.447 16.435.894 24.649.894 6.888 0 13.557-.675 20.428-.675 9.539 0 19.111.44 28.658.675 2.001 0 4.221-.236 6.441-.236h16.208c14.451-.439 28.886-.675 43.33-1.097 8.23-.237 16.67-.676 24.884-.904l25.324-.675c9.776-.22 19.55-.22 29.106-.422 7.327 0 14.435-.253 21.779-.464 8.205-.22 16.646-.887 24.868-1.325 4.449-.228 8.897-.676 13.338-1.115 5.335-.439 10.889-1.097 16.207-1.325 8.002-.456 16.224-.675 24.227-1.123 9.994-.658 19.989-1.544 30.203-1.772 9.336-.44 18.883-.22 28.22-.44 8.221-.227 16.443-.675 24.885-.894l14.012-.675s9.32-.22 13.988-.676c7.994-.439 15.988-1.325 23.99-1.545 5.099-.227 10.214 0 15.321-.227 8.214-.22 16.655-.676 24.877-.676 3.098 0 6.432.456 10.433.676-1.772 1.561-2.887 2.448-4.22 3.562.886.22 1.772.675 2.667 1.114-1.334.886-2.448 1.097-3.545 1.097-.456 1.123-.903 1.57-1.35 3.8h4c-1.553 0-2.887 2-4.44 3.333-1.772-.455-3.334 0-4.22 2.448 1.553.878 1.333 1.545 1.114 2.448-2.668.878-4.668 1.773-3.546 4.66-.903.439-2.009.886-3.123 1.553-1.097 1.773-3.106 2.22-2.667 4.668.894.211 1.772.676 2.448.878-1.115.448-2.22 1.114-3.335 1.553-3.992 2.448-2.211 3.563-1.325 4.677-.675.447-1.334.886-2 1.114.438 2 1.097 2.448 1.325 2.448-.887.659-2 1.553-3.335 2.668-.675 2-1.561 2.887-2.448 4.22-.886 1.334-1.333 3.124-2.448 4.449-4.66 5.124-7.994 11.143-13.987 15.135-2.228 1.562-4.22 3.563-6.221 5.572-4.001 3.773-7.555 8.002-11.776 11.564-5.546 4.668-11.311 8.89-17.322 13.118-7.318 5.116-14.645 10.231-21.981 15.127-4.001 2.66-8.441 4.66-12.662 7.108-4.22 2.448-8.222 4.676-12.443 7.116-2.667 1.773-5.115 4.22-8.002 5.571-7.327 3.123-15.11 5.783-22.657 8.678-7.344 3.123-12.662 5.782-18.216 7.783-5.107 1.773-10.442 3.123-15.769 4.22-1.772.456-3.781 0-5.782.228-3.782.676-7.555 1.57-11.337 2.01-9.775 1.333-19.55 2.228-29.317 3.562-5.782.675-11.336 1.772-17.11 2.448-3.993.22-8.214-.22-12.215-.22-2.887 0-5.993.676-8.889.228-4.66-.675-9.327-1.772-13.995-2.667-1.098-.22-2.668-.676-3.546-.22-1.773.895-3.343-.439-5.124 0-1.097.228-2.211-.675-3.326-.675-.894-.211-2.009.236-3.123 0-2.448-.658-4.66-1.545-7.344-1.325-2.642.22-5.318-1.115-8.188-1.773-4.01-.895-7.766-1.773-11.784-2.676-1.545-.447-2.87-1.114-4.432-2-5.782 0-9.564-.22-13.118-1.562-3.106-1.098-5.993-2.66-9.328-2.212-.877.22-1.544-.22-2.448-.22-.675-.894-1.325-2.675-1.983-2.675-4.44.228-7.108-3.546-10.89-4.668-1.992-.676-3.545-2.896-5.546-3.563-4.896-2-8.88-6.22-14.434-6.888-1.773-.228-3.546-1.114-5.555-1.772.676.877 1.098 1.544 1.773 2.211-6.44-3.123-12.434-6.668-18.436-10.011-.878-.22-1.545-1.098-2.212-1.553l-5.993-4.002c-3.334.676-4.668-.675-5.571-1.114-5.994-4.22-12.873-6.897-18.656-11.565-2.448-2.009-5.318-3.342-7.09-5.79-3.124-3.782-6.897-6.45-11.118-8.67-3.326-1.772-6.432-3.781-9.539-5.782-1.561-1.114-3.123-2.448-3.123-4.896 0-1.562-.658-3.123-2.659-2.229-.886-1.333-1.773-2.886-2.887-3.334-2.667-1.097-4.44-3.123-6.44-4.896-2.001-1.773-3.546-4.22-5.994-5.107-4.449-1.773-7.116-5.554-9.775-8.67-6.23-7.343-11.784-15.362-17.558-23.129-.448-.675-1.334-1.122-2-1.79.886 2.449 2 4.45 3.106 6.67-2.212-.887-3.765-2.448-5.099-4.002-.228.228 15.321 25.806 15.321 25.806 1.35 2 2.448 4.01 3.782 6.01-3.334.22-5.555-1.562-6.669-3.562-1.992-3.546-4.22-5.774-8.66-5.318-.44-1.57-.887-3.352-1.098-4.896-.903 0-1.562 0-3.123-.228 3.123 4.896 5.782 9.116 8.669 14.012-1.123-.675-1.773-1.114-2.237-1.333 3.993 4.22 6.88 9.564 11.987 12.24 1.114 5.107 6.888 7.555 8.222 12.45-1.098-.227-2.01-.447-3.124-.675-1.772-2.22-3.773-4.44-5.765-6.888.439 1.553 1.097 2.887 1.992 4.001 2.667 3.335 5.115 6.669 8.222 9.564 1.114 1.132 2.667 1.579 2.667 3.58 1.773.886 2.448 1.097 3.107 1.097.456 1.35-.211 3.351 2.448 2.904 1.772 3.334 3.545 3.334 5.993 2.228 2.896 2.896 4.457 3.124 6.45 1.35 0 1.098.219 2.213.219 3.107.886-.447.675-1.114.675-2.228 1.098.886 1.773 1.334 2.212 1.772 2.22 3.124 4.22 6.01 7.327 8.459 4.22 3.562 8.002 7.344 11.987 10.678 7.783 6.458 16.46 11.801 25.113 16.689 10.67 6.01 20.892 12.46 31.773 18.233 13.101 6.905 27.097 11.582 41.532 14.916 5.335 1.114 10.442 2.22 15.785 3.545 4.643 1.35 9.32 3.352 13.987 4.457 7.108 1.562 14.435 2.896 21.543 4.221 1.544.228 3.123.456 4.896.675 1.983.448 4.423-.447 4.87.228 1.115 1.773 2.001.878 3.335.659 1.553-.448 3.334-.448 5.107-.448 6.221.22 12.214 1.554 18.436 1.115 1.35 0 3.342-1.123 4.457 1.097 1.992-.886 3.106-.886 3.993-1.097.236 1.992 0 1.992-.423 2.211-.455.22-1.122.448-2.009 1.114 7.994 1.554 15.55 1.773 22.201 0 11.565.887 21.56-.447 31.115-3.781.886 1.114 1.553 2.667 2.887.447.439-.675 1.553-.903 2.448-1.123 1.992-.447 4.44-1.333 6.213-.675 2.009.675 2.676-1.097 4.22-1.097a41.33 41.33 0 0 0 7.564-.676c1.334-.22 2.668-.886 4.22-1.333-1.772-.904-3.545-1.123-4.895-1.123 2.676-1.334 5.115-2.448 7.563-3.545-.447.658-.895 1.544-1.772 1.544h3.097c-.675 0-1.561 2.001-2.667 3.335 7.986-2 15.313-3.782 22.429-5.572-2.448-4.66 2.659-3.098 4.44-5.773-2.22.675-4.44 1.333-6.669 1.772 7.555-3.773 15.33-7.107 22.876-10.442-1.097 1.334-2.448 2-4.431 3.124 1.333.21 2.22.21 2.887.422 3.545 1.122 2.667-2.212 3.773-4.221 4.22 0 5.993-.659 7.994-1.334 2.22-.675 4.44-1.334 6.669-2.22 3.545-1.553 6.88-3.545 10.433-5.318.675-.236 1.773 0 2.668 0 2.448-1.57 3.325-2.904 3.992-2.684 3.124.447 5.318-.676 6.213-3.546 1.553-1.122 2.668-2.009 3.773-2.684 4.88-2.668 9.54-5.335 14.435-8.002 1.773 0 2.668 0 3.107-.228 2.903-1.351 5.57-2.887 8.23-4.449-.675-.22-2.22-1.097-2.22-1.097 2.211-.456 2.87-.676 4.22-1.123 5.319-6.247 12.663-10.467 18.209-15.363 2.448-.22 2.448-.887 2.448-1.326.877-1.114 1.772-2.448 2.87-3.342 4.896-4.45 10.214-8.23 14.662-12.899 6.441-6.466 12.662-13.143 18.436-20.04 5.318-6.23 10.67-12.45 15.11-19.347 6.222-9.564 11.548-19.356 17.103-29.376 4-7.108 7.555-14.224 11.564-21.34.422-.675 1.325-1.562 1.992-1.562 5.994-.675 12.004-1.097 17.778-1.772 1.334-.22 2.887-1.098 4.22-1.773-.675-1.114-1.114-2.448-1.772-3.562-.895-1.351-2.229-2.448-3.123-3.799-.878-1.097-1.545-2.448-2.212-3.773-.675-1.098-1.334-1.992-2-3.124-1.351-2.448-2.677-4.896-3.8-7.546-.219-.675-.675-1.773-.438-2.448 4.001-8.67 5.554-18.014 9.327-26.692 3.774-8.897 4.896-18.908 6.67-28.472 1.552-9.117 2.447-18.234 3.545-27.35.675-6.45 1.561-12.68 1.772-19.129 1.35-10.23.895-19.803.676-29.376-.22-8.441-.676-17.119-1.098-25.577zM99.298 559.392c-1.553-1.772-2.887-3.78-4.44-5.554l.675-.675c2.423 2.676 4.871 5.344 7.31 8.239-1.333-.675-2.886-1.114-3.545-2.01zm3.546 2.01c.675-.228 1.35-.228 2.009-.447.675 1.114 1.114 2.448 1.772 3.781-3.106-.228-4.66-1.561-3.773-3.334zm231.04 91.867v-.675c4.22-.439 8.213-.886 12.434-1.325v.65a119.52 119.52 0 0 1-12.434 1.333zm55.966-5.782c-3.098.675-6.432 1.123-9.538 1.57-1.115.22-2.448 1.334-2.887-.675-.448.228-.895.228-1.334.456 1.097 3.326 3.773.658 5.993 1.992-4.896.675-9.538 1.114-14.215 1.772v-.438c1.35-.22 2.895-.448 4.22-.676v-.658c-2.211-.228-4.431-.448-6.668-.448-.65 0-1.545.895-2.212 1.115-.886.22-1.772.447-2.887.447-3.773.22-7.546.22-11.108.439-.228 0-.676-.22-.895-.22v-.675c14.882-1.992 29.545-3.993 44.427-5.993.228.439.228.886.447 1.325-1.334 0-2.22.464-3.334.675zm3.343-2.212c5.116-.675 9.792-1.114 14.671-1.772-10.214 2.887-13.548 3.326-14.662 1.772zM199.708 196.152c7.091-9.792 14.435-19.584 21.543-29.587 2.22-2.912 3.993-6.027 6.213-8.914.675-.895 1.561-1.334 2.667-2.228l-.22-.422c.887-1.123 1.773-2.026 2.22-2.904 1.132-1.773 1.799-3.782 2.685-5.783.22-.422.886-.87.886-.87 3.124 1.554 3.124-1.772 4.221-2.894 2-2.229 4.001-4.669 5.774-6.897 1.334-1.773 2.668-3.334 3.782-5.335.22-.675-.448-1.773-.676-2.676h-.658c.675-.439 1.334-1.097 2-1.553.22 0 .22 0 .44-.22 1.333-2.009 2.667-4.01 4-5.79 2.66-3.546 5.547-7.108 8.653-10.214-.439 1.097-.886 2.22-1.334 3.106.228 0 .228.228.448.228 2.667-3.562 5.554-6.897 8.222-10.467-.228-.211-.448-.44-.676-.44-1.097 1.115-1.992 2.23-3.106 3.343-.22-.228-.439-.447-.675-.447 2.237-2.895 4.457-5.782 6.668-9.117.448.676.895 1.554 1.773 3.335.903-2.22 1.79-3.774 2.448-5.335-.658.675-1.545 1.333-2.212 2.009l-.675-.676 4.001-5.993c4.221-6.01 8.442-12.24 12.662-18.25 1.562-2.22 3.546-4.001 4.896-6.23 4.221-8.441 10.89-15.127 15.988-22.91 1.115-1.553 2.668-2.887 4.002-4.22 1.097-1.351 2-.895 2.886.219 5.994 7.563 11.987 15.346 17.98 22.91 4.458 5.571 8.898 10.89 13.119 16.68 5.107 7.125 9.994 14.24 15.11 21.357 5.773 8.23 11.547 16.46 17.102 24.902 8.441 12.468 16.435 24.927 24.876 37.378 6.222 9.117 12.443 18.022 18.436 27.14h-11.345c-10.433-.212-21.103-1.098-31.537-.66-14.215.676-28.65 2.23-42.865 3.344-17.997 1.561-36.213 1.772-54.194 1.772-6.457 0-12.898.903-19.33 1.35-7.783.44-15.338.887-23.113 1.098-9.116.456-17.98.676-27.097.903-5.115.22-10.442 0-15.996 0zm254.786 102.31v2.009c-.22 0-.439.228-.886.228-.886-3.124-1.773-6.466-2.887-9.581-2.22-6.458-4.668-12.916-8.67-18.69-4.456-6.22-8.44-12.662-12.898-19.12-1.097-1.56-2.667-2.895-4-4.22-4.669-5.124-9.337-10.467-15.33-14.24-8.89-5.572-17.997-10.24-27.773-14.25-2.667-1.097-5.107-2.448-7.766-4h5.318l37.987-.676c8.222-.211 16.224-.211 24.437-.659 1.993 0 3.107.676 4.221 2.448 1.992 3.335 3.993 6.67 6.213 10.012.228.439.675 1.097.675 1.773 0 4.896 0 10.011.22 14.907.21 5.116.675 10.012.878 15.127 0 5.116-.448 10.45-.22 15.785.228 7.572.448 15.364.448 23.13zm-239.026-74.487c10.442-.447 20.429-1.114 30.66-1.562 7.977-.447 16.207-.675 24.193-1.114 3.334-.211 6.449-.422 9.775 0-3.546 1.79-7.108 3.57-10.214 5.79-4.002 2.668-7.767 6.222-11.776 9.118-4.01 2.886-7.564 6.449-10.89 10.23-4.22 5.108-8.888 9.556-13.337 14.452-3.123 3.562-6.669 6.897-9.328 10.678-3.773 4.896-7.107 10.214-10.661 15.786 1.114-21.137 2.448-42.038 1.553-63.395zm145.065 213.989c-7.116 1.772-14.434 3.781-21.778 4.668-6.213.895-12.662.675-19.103.675-5.79 0-11.345-.22-17.12-.675-6.44-.659-12.88-1.325-19.102-4.22-5.343-2.449-10.89-4.669-16.207-7.345-5.352-2.667-10.679-5.774-14.688-10.67-2.87-3.57-6.88-6.457-10.434-9.572.675 2.667 2.22 4.896 4.668 6.449-1.114 1.334-2.667.675-4.896-2.895-.658.447-1.325.675-1.773.894.676-1.561 1.334-3.123 2.001-4.448-.886-1.773-2-3.782-2.887-5.572a187.167 187.167 0 0 1-5.107-8.888c-.447-.676-.447-1.334-.886-2-1.115-1.335-2.229-2.677-3.124-4.01-1.772-2.66-3.326-5.547-5.546-8.222 0 .675.228 1.333.228 2.228-.228 0-.447.22-.447.22l-4.677-11.346c-.22 0-.22 0-.439.22l3.993 14.688c-.22 0-.439.21-.675.21-.65-.877-1.317-1.772-1.773-2.87-.439-1.789-1.772-1.789-2.87-1.122-.675.447-1.123 2-.895 2.668 1.562 3.781 3.335 7.563 5.116 11.345a26.459 26.459 0 0 0 1.553 3.781c.228.448.895.887.895 1.554.895 1.772 1.561 3.545 2.667 5.115 2 2.668 4.221 5.335 6.222 8.003 1.983 2.667 3.756 5.57 5.537 8.23.22.447.886.447 1.098.675 1.122 3.335 4.896 5.774 7.563 4.44.675 5.116 6.221 6.897 8.441 11.793-2.667-1.114-4.66-2-6.44-2.895-.228.219-.228.439-.456.886 2.667 1.334 5.335 2.667 7.766 4.22 2.237 1.351 4.457 2.676 6.457 4.221 2.668 2.448 5.783 3.799 9.54 4.677-.203-.676-.423-.903-.423-.903a787.208 787.208 0 0 1 17.541 8.44c-23.104.457-47.761.904-73.313 1.352 0-4.221-.22-8.23-.22-12.46 0-1.773.44-3.334.212-5.115-.676-10.214-.676-20.462-2.001-30.474-1.325-10.67-1.325-21.128-1.097-31.824.21-5.765-.228-11.767-.456-17.558 0-7.783 0-15.363.236-23.13 0-1.113.448-2 .895-3.122h.675c.211.455 0 1.122.422 1.35.676.676 1.79 1.773 2.237 1.553 1.326-.894 3.326-1.772 3.774-3.123 1.097-2.659 1.553-5.554 1.553-8.222 0-1.992.895-3.326 1.772-4.668.456-.675.676-1.334 1.123-2.22-.886-.675-1.773-1.114-2.887-2 .895-2.449.675-5.344 4.01-6.67.439-.227.439-1.35.675-2.008.211-1.798.422-3.799.659-5.572.439.676.675.887 1.097 1.326.236-.44.456-.676.456-.676 0-.877-.22-2.659 0-2.659 2.667-.447 1.553-3.334 2.887-4.668.21-.236-.228-.903-.228-1.35 0-.44 0-1.098.22-1.098 3.097-.675 2.658-4.01 4.659-5.571.675-.447.886-1.097 1.773-2.22 1.772 3.106-1.334 4.668-1.554 6.888 3.765-2.22 4.88-7.555 2.66-9.117a13.18 13.18 0 0 0 2.447-2.448c2.448-2.667 5.099-5.115 7.328-7.783 1.561-1.992 2.448-4.44 4-6.44.896-1.115 2.668-2 4.002-2.676 4.001-2.212 7.766-4.66 10.214-8.442.447-.447 1.114-.886 1.773-1.333.675-.448 2.009-.448 2.228-1.115.228-.439-.439-1.553-.886-2.22.878-.447 1.773-1.333 3.545-2.228-.675 1.334-.886 2.228-1.333 3.123l1.097 1.097c2.009-1.553 5.115-3.325 7.116-4.66 0-.21-1.114-1.097-1.114-1.097-1.326.676-3.326 1.773-5.318 2.668.422-.675.422-1.114.675-1.334 3.098-2 6.204-4.001 9.539-5.571 7.766-3.545 15.549-7.108 23.323-10.442 1.334-.675 3.124-.22 4.668-.22.659 0 1.098 0 1.773-.219 3.545-1.114 7.108-2.229 10.661-3.123 1.545-.44 3.318-.659 4.896-.659 6.644.211 13.312.211 19.973.659 2.887.22 5.554.886 8.222 1.772 3.326 1.123 6.88 2.676 9.994 4.221 3.773 2.026 7.327 4.238 10.89 6.686 6.44 4.22 12.434 8.897 18.874 12.679 6.222 3.781 11.11 8.897 15.11 14.688 4.897 6.888 10.442 13.117 12.663 21.567l3.325 14.688c.676 2.668 2.229 5.335 1.562 8.442-1.123 5.57-2.009 11.353-2.895 16.916-.44 2.237-.887 4.474-.659 6.669.422 6.922-2.237 12.915-4.896 19.145-.894 2-2.228 4.01-3.334 6.23.22.219 1.553.894 1.773.894l2-4c.228 0 .228 0 .448.227-1.115 3.106-2 6.45-3.124 9.564-2.65 6.897-5.318 14.013-8.652 20.681-1.773 3.782-4.896 6.897-7.108 10.468-2.211 3.106-3.992 6.44-6.213 9.336-2 2.448-3.992 4.896-6.668 6.669-5.994 4.448-12.215 8.897-18.656 12.46-3.992 2.447-8.66 3.78-13.1 4.895zm-118.407-11.818l-.22.228c-.463-.22-1.13-.44-1.57-.887l-5.334-8.019c-.44-.658-.675-1.325-.44-2.212 2.449 3.782 4.897 7.344 7.556 10.89zm138.186 30.473c9.986-4.22 18.208-10.214 25.746-17.119 1.122-1.114 2.228-2.22 3.562-3.123 9.336-5.774 16.207-13.785 22.437-22.682 7.108-10.231 11.776-21.796 17.558-32.694.44-.894.878-1.772 1.326-2.448-.448 25.358 2.448 50.269 5.773 75.407-25.096.886-50.648 1.773-76.41 2.668zm225.24-6.669c-.219.448-.675.895-.886 1.351-.228-.456-.228-1.123-.447-2.026-1.334 3.57-4.22 1.79-6.221 1.79-11.987.228-24.21.228-36.214.228-11.548 0-23.315 0-34.863.202-3.781 0-7.783.887-11.564 1.115-9.1.438-18.208.675-27.317.886-.675 0-1.333-1.098-2.448-1.992-.22.447-.675 1.114-1.333 2-.237-.439-.676-.878-1.123-1.544-.22.675-.447 1.333-.675 1.772h-.642c-.447-3.106-1.334-5.993-1.334-9.116 0-6.67.676-13.338.887-20.023.228-3.107 0-5.994 0-8.898.894.676 1.561 1.123 2.448 1.773.439-.87.886-1.536 1.333-2.195 0 0-.447-.236-.894-.675.422-.228.878-.675.878-.895.219-.675.675-1.334.675-1.772 0-1.562-.456-2.896-.675-4.221.219 0 .438 0 .675-.236l1.325 6.668h.675c-.894-1.545 1.993-2.887-.447-4.66-.22-.227.22-1.561.22-2.228-.676-1.325-1.098-2.659-1.773-4.44.22-.22.886-.448 1.553-.675-.886-.44-1.553-.878-2.22-1.098 2.22-2.009 2.22-3.123.22-5.343.455-.211.894-.211.894-.422 0-2.01 0-4.01-.439-5.994-.447-2.245.676-4.896-2.667-6.246.22.675.447 1.114.886 1.772 0 0-.675.228-1.334.676-2.887-2.676-1.097-6.247-1.772-10.24 1.553.448 2.667.895 3.773 1.351-.447-1.57-1.553-3.351-2.22-5.352h-.903v-14.688c0 .228 1.553.228 2.448.456 0-.228.21-.447.21-.675-.675-.887-1.56-1.773-2.447-2.887l.447-.448c-1.773-2.211-.886-5.318-.886-5.993v-15.574c2.228 2.228-1.098 5.115 2.228 6.449v-2.22h-.228c-.22-3.335-.22-6.669-.439-10.012h-.439c-.227.456-.227.676-.455 1.123h-.44l1.334-53.164c2.22 2.887 4.66 5.572 6.213 8.442 5.116 9.353 11.776 17.364 17.997 25.813 5.335 7.344 10.214 15.347 15.11 22.91 5.994 9.117 11.768 18.234 17.77 27.35 4.44 6.905 9.116 13.802 13.759 20.479 4.22 5.993 8.678 11.784 13.118 17.575 3.765 5.115 7.766 10.23 11.54 15.346 4.448 6.23 8.888 12.451 13.336 18.462 2.212 3.106 4.66 6.22 7.091 9.336 1.35 1.772 3.343 3.123 4.677 4.22-.211 0-.44 0-.878-.219.675.886 1.097 1.553 1.553 2 2.448 1.334 2.668 2.668 1.334 4.677zm11.329-55.594v-1.562c0 .439.22 1.097 0 1.553zm7.555-98.09c-.228 0-1.553-1.35-1.773-1.57-.228.676 0 1.335-.447 2.23-.228-.66-1.773-.44-1.773-1.098-.228 3.106 1.326 6.221 1.098 9.336.675-.447 3.334-.675 4-1.334.229.22.676.44.896.44-4.449 3.342-3.335 6.668-1.334 10.467.439.878 1.773 2.659.439 4.44-.44.447.228 1.772.447 2.895h.65v.422l-2 .676c-.44-.676-3.098-1.993-3.098-3.124v11.362c2.22.676 2.22 3.782 3.106 5.344a6.649 6.649 0 0 0 .903-1.773l.228.203c-.228 1.333-.447 2.667-.895 4.01-.439 1.991-.886 3.773-1.097 5.773 0 .22.422.675.422.886-2.431 5.572-1.097 11.785-1.984 17.559-.675 4.22 0 8.694-.447 13.134-.456 3.782-1.35 7.783-2.229 11.565-.227.675-.675.886-1.772 1.334.439-2.668.22-4.449-.228-6.897-.237 0-3.123-1.553-3.351-1.553 0 3.123 1.772 7.344 2.448 10.89-.676-.22-3.335-1.773-3.546-1.773-.456 2.667-.456 6.23-.675 9.116-.228 2.229-2.22 4.221-2.448 6.669 0 1.35 1.553 2.228 1.334 4.457h1.772c0-4.44 2.01-8.441 2.01-13.118h.658c.228.448.895.895.675 1.114-.447 2.448-1.35 5.116-1.114 7.564 0 1.334 1.097 2.667.675 4.22-.456 1.351-.675 2.676-.903 4.677-.228-1.114-.447-1.553-.447-2.22-.22 0-2.22-.228-2.448-.228-.22 1.334 1.561 2.668 1.333 3.782-.22.22-.439.22-.886.447l-7.327-10.687c-5.79-8.441-11.565-16.908-17.339-25.577a53.286 53.286 0 0 1-4.01-6.669c-6.88-11.8-14.434-23.146-22.875-34.044-6.433-8.222-11.565-17.136-17.559-25.788-5.537-8.23-11.091-16.241-16.646-24.48-2-2.66-4.44-5.107-6.221-8.002-5.766-9.117-10.89-18.462-16.647-27.578-4.896-7.572-10.214-14.916-15.33-22.252-1.772-2.448-3.544-5.124-5.334-7.791-.22-.422-.439-.87-.439-1.537-.447-4.896-.895-9.792-1.114-14.46 0-4.448.447-8.897.447-13.573v-4.002c0-1.114.211-2 .211-3.123.211-.21.44-.658.659-.878-6.441 0-13.11-.236-19.55 0-4.221.211-6.441-1.57-9.328-4.685-8.442-9.564-14.663-20.462-21.99-30.693-6.888-9.792-13.996-19.364-21.104-28.928-5.782-7.783-11.564-15.347-17.33-23.13-6.449-8.897-12.662-17.794-19.33-26.691-8.003-10.67-16.225-21.357-24.438-32.027-3.799-4.896-8.02-9.564-12.24-14.688 2.895.456 5.571.895 8.23 1.123l10.67.675c7.994.65 15.988 1.098 23.974 2.195 6.668.903 13.337 2.237 20.225 3.343 14.671 2.448 29.106 6.458 43.102 11.126 8.222 2.667 16.207 6.23 24.226 9.564 17.98 7.344 35.091 16.24 51.974 25.577 5.318 2.895 8.441 7.563 12.426 11.793 5.782 6.01 11.564 12.012 17.11 18.233 6.433 7.344 12.426 14.907 18.656 22.47 5.546 6.67 11.311 13.338 16.882 20.024 1.773 2 3.124 4.448 4.66 6.669 3.546 5.343 7.555 10.467 10.662 16.24 2.211 4.238 3.545 9.134 5.098 13.802 2.212 6.897 4.44 13.566 6.669 20.462 1.545 5.116 2.87 10.468 3.984 15.786.895 3.57.675 7.344 1.773 10.889 1.35 4.693 0 9.792 1.35 14.477.212.447.423 1.114.659 1.562.886.877 1.553 1.772.22 3.106-.212.22-.212 1.097 0 1.773.455-.44.675-.887 1.122-1.554 0 .448.211.676.211.887 0 .878-.228 1.773 0 2.659 0 .439.44 1.097.659 1.553.447-.456.886-.675 1.772-1.35 2 7.571 2.229 15.135 2.229 22.918 0 7.344 1.325 14.688-1.773 21.804.658-2.448-.895-4.685-.228-6.905z" fill="#dd3a0a"/><path d="M482.494 382.774c.211 0 .44.228.44.228l-.229-.253c0-.211 0-.211-.22 0zm35.091 219.78c-2.448 1.772-4.896 3.334-8.002 4-.237-.219-.237-.447-.456-.675 2.448-1.553 5.107-3.106 7.555-4.668.228.422.675.878.895 1.326zM101.071 301.129c2.448-3.098 4.896-6.213 7.547-9.328.21.22 1.983.676 2.211.887-2.448 3.123-5.782 7.344-8.222 10.678-.455-.447-1.122-2-1.561-2.228zm-63.1 109.02c-1.772-3.781-3.545-7.791-5.317-11.564.22-.228 1.772-.895 1.992-.895 2.448 3.545 3.545 7.766 5.335 11.565 0 0-1.773.886-2 .886zm56.66-106.783c-1.334 2.01-2.668 4.238-4.002 6.247-.22-.237-2.667.878-2.887.658 1.334-2 4.66-5.571 5.993-7.563.228.22.448.447.895.675zm399.192 308.321c.21 0 .21-.22.439-.22 1.553.22 3.326.44 5.107.44-2.904 2-4.685 1.772-5.572-.22zM95.053 312.711c.236-.676.675-1.334 1.122-2 .439 0 1.097-.229 1.097-.229.904-1.553.904-2.667 1.79-4.001-.22-.22-.447-.22-.675-.447-1.326.911-2.66 2.025-3.993 2.912.447.439.447.675.447 1.114-1.772-.228-2.448.675-3.334 3.107-.22.675-1.334.894-2.448 1.772-.22.456-.439 1.57-.886 2.676l.228.236c-.448.448-1.115.676-1.115.676-1.333 1.325-2.887 2.448-4.22 3.773-.22.675-.44 1.334-.44 2 1.562-1.553 4.221-4.448 6.222-6.23l.228.229c.886-1.334 1.553-2.668 2.448-4.001.21.22.21.439.439.675-.676 1.773-1.334 3.765-2 5.546-.465.22-1.132.675-1.132.447-.886.676-1.553 1.554-2.448 2.22l-3.993 2.668c-2.22 2-4.44 3.773-6.888 5.782-1.553 2.448-3.106 4.668-4.896 7.564 2.676-.676 3.343.447 3.123 2.676 3.107.439 3.335-2.001 4.221-3.782.22-.456.448-1.35.886-1.57 2.001-1.773 4.221-3.326 6.441-5.107.448-.448.448-1.35.448-2.01 0-.219-1.123-.219-1.79-.447 2-2.228 4.896-5.993 6.888-8.441 1.114-.675 2.22-1.57 2.22-2.237-.22-2.448 1.334-3.106 3.124-4.001-.895-.676-1.123-1.326-1.123-1.545z" fill="#dd3735"/><path d="M99.51 310.263c-.887 1.553-1.773 2.887-2.66 4.448l-1.333-.675c-.887 5.107-4.002 9.556-7.108 10.442.886.447 1.773.895 2.448.675.658-.228 1.097-1.35 1.545-2.009l5.993-8.678 2.01-3.342-.887-.887zm-73.964 97.65c1.114 0 2.229.219 3.545.219 0-.886 1.123-.675 1.123-1.553h.675c0 1.114.22 2 .22 3.123h-4.66c-.228-.228-1.114-1.57-.894-1.79zm-1.773-10.231c-.675-.676-1.772-1.334-1.772-2.001-.228-.878.439-1.984 1.097-3.098.456 1.553.675 2.887 1.114 4.449-.228.21-.447.438-.447.658zm5.555-14.241c.886 2.245 1.773 4.693 2.667 6.922-.22 0-1.553.675-1.772.886-.887-2.228-2.001-4.676-2.887-6.896.22-.22 1.553-.895 2-.895zm494.495 212.672c1.098-.44 2.431-.675 4.221-1.098-2.01 1.545-3.562 2.66-4.896 3.993-.228-.22-.447-.447-.675-.447.447-.887.894-1.553 1.35-2.448zM250.78 126.089c1.325-.895 2.448-1.562 3.773-2.448l.439.439c-1.35 1.772-2.448 3.545-4.01 5.782-.22-1.545-.22-2.448-.447-3.545-.22 0 0 0 .228-.22zm65.083 112.549c2-.895 4-1.773 6.44-2.896-.219 1.334-.219 2.229-.219 3.124-.675-.228-1.562-.456-2.229-.456-1.333.228-3.781 2.009-4.896 2.228-.21 0 .895-1.772.895-2zm166.632 188.63c.44 2.22 4.66 3.335.44 5.555.675.464 1.325.675 1.991 1.131 0 .228-.219.675-.438.895-.448.21-1.334.658-1.773.422-.228 0-.675-.878-.675-1.325 0-2.001.227-4.002.447-6.669z" fill="#dd3735"/></g></svg>